<svg xmlns="http://www.w3.org/2000/svg" xmlns:svg="http://www.w3.org/2000/svg" id="Layer_1" width="552" height="552" x="0" y="0" enable-background="new 0 0 512 512" version="1.1" viewBox="0 0 552 552" xml:space="preserve"><metadata id="metadata13"/><g id="g6" transform="translate(20,20)"><g id="g4"><style id="current-color-scheme"/><path id="hint-apply-color-scheme" fill="currentColor" d="m 112,160 h 288 c 8.833,0 16,-7.167 16,-16 0,-8.833 -7.167,-16 -16,-16 H 112 c -8.833,0 -16,7.167 -16,16 0,8.833 7.167,16 16,16 z m 288,32 H 112 c -8.833,0 -16,7.167 -16,16 0,8.833 7.167,16 16,16 h 288 c 8.833,0 16,-7.167 16,-16 0,-8.833 -7.167,-16 -16,-16 z m 0,64 H 112 c -8.833,0 -16,7.167 -16,16 0,8.833 7.167,16 16,16 h 288 c 8.833,0 16,-7.167 16,-16 0,-8.833 -7.167,-16 -16,-16 z m 0,64 H 112 c -8.833,0 -16,7.167 -16,16 0,8.833 7.167,16 16,16 h 288 c 8.833,0 16,-7.167 16,-16 0,-8.833 -7.167,-16 -16,-16 z" class="ColorScheme-Text"/></g></g></svg>