<svg xmlns="http://www.w3.org/2000/svg" xmlns:svg="http://www.w3.org/2000/svg" id="Layer_1" width="552" height="552" x="0" y="0" enable-background="new 0 0 512 512" version="1.1" viewBox="0 0 552 552" xml:space="preserve"><metadata id="metadata9"/><style id="current-color-scheme"/><path id="hint-apply-color-scheme" fill="currentColor" fill-rule="evenodd" d="m 420,180 c -5.312,0 -10.562,0.375 -15.792,1.125 C 374.334,140.417 327.188,116 276,116 224.812,116 177.688,140.417 147.792,181.125 142.562,180.375 137.312,180 132,180 70.25,180 20,230.25 20,292 c 0,61.75 50.25,112 112,112 13.688,0 27.084,-2.5 39.709,-7.333 C 200.666,421.917 237.5,436 276,436 314.542,436 351.333,421.917 380.291,396.667 392.916,401.5 406.312,404 420,404 481.75,404 532,353.75 532,292 532,230.25 481.75,180 420,180 Z m 0,192 c -17.125,0 -32.916,-5.5 -45.938,-14.667 C 350.584,385.624 315.624,404 276,404 236.375,404 201.416,385.624 177.938,357.333 164.938,366.5 149.125,372 132,372 87.812,372 52,336.188 52,292 c 0,-44.188 35.812,-80 80,-80 10.812,0 21.062,2.208 30.438,6.083 C 183.667,176.667 226.291,148 276,148 c 49.709,0 92.334,28.667 113.541,70.083 C 398.938,214.208 409.209,212 420,212 c 44.188,0 80,35.812 80,80 0,44.188 -35.812,80 -80,80 z" class="ColorScheme-Text" clip-rule="evenodd"/></svg>