<svg xmlns="http://www.w3.org/2000/svg" xmlns:svg="http://www.w3.org/2000/svg" id="Layer_1" width="552" height="552" x="0" y="0" enable-background="new 0 0 512 512" version="1.1" viewBox="0 0 552 552" xml:space="preserve"><metadata id="metadata13"/><g id="g6" transform="translate(20,20)"><g id="g4"><style id="current-color-scheme"/><path id="hint-apply-color-scheme" fill="currentColor" fill-rule="evenodd" d="m 400,64 c -5.312,0 -10.562,0.375 -15.792,1.125 C 354.334,24.417 307.188,0 256,0 204.812,0 157.688,24.417 127.792,65.125 122.562,64.375 117.312,64 112,64 50.25,64 0,114.25 0,176 c 0,61.75 50.25,112 112,112 13.688,0 27.084,-2.5 39.709,-7.333 C 180.666,305.917 217.5,320 256,320 294.542,320 331.333,305.917 360.291,280.667 372.916,285.5 386.312,288 400,288 461.75,288 512,237.75 512,176 512,114.25 461.75,64 400,64 Z M 225,480 c 0,17.688 14.312,32 32,32 17.688,0 32,-14.312 32,-32 0,-17.688 -32,-64 -32,-64 0,0 -32,46.312 -32,64 z m 127,-32 c 0,17.688 14.312,32 32,32 17.688,0 32,-14.312 32,-32 0,-17.688 -32,-64 -32,-64 0,0 -32,46.312 -32,64 z M 96,384 c 0,17.688 14.312,32 32,32 17.688,0 32,-14.312 32,-32 0,-17.688 -32,-64 -32,-64 0,0 -32,46.312 -32,64 z" class="ColorScheme-Text" clip-rule="evenodd"/></g></g></svg>