<svg xmlns="http://www.w3.org/2000/svg" xmlns:xlink="http://www.w3.org/1999/xlink" id="Layer_1" width="512" height="512" x="0" y="0" enable-background="new 0 0 512 512" version="1.1" viewBox="0 0 512 512" xml:space="preserve"><g><g><style id="current-color-scheme"/><path id="hint-apply-color-scheme" fill="currentColor" d="M256,0C114.604,0,0,114.604,0,256c0,141.375,114.604,256,256,256c141.375,0,256-114.625,256-256 C512,114.604,397.375,0,256,0z M256,448c-105.875,0-192-86.125-192-192S150.125,64,256,64s192,86.125,192,192S361.875,448,256,448 z M160,352l128-64l64-128l-128,64L160,352z" class="ColorScheme-Text"/></g></g></svg>