<svg xmlns="http://www.w3.org/2000/svg" xmlns:svg="http://www.w3.org/2000/svg" xmlns:xlink="http://www.w3.org/1999/xlink" id="svg5048" width="136.533" height="136.533" version="1.1" viewBox="0 0 128 128"><defs id="defs5050"><filter id="filter4004-4" width="1" height="1" x="0" y="0" color-interpolation-filters="sRGB"><feColorMatrix id="feColorMatrix4006-0" in="SourceGraphic" result="result2" type="saturate" values="1"/><feFlood id="feFlood4008-2" flood-color="#FAF7F7" flood-opacity="1" result="result1"/><feBlend id="feBlend4010-1" in="result1" in2="result2" mode="multiply" result="result3"/><feComposite id="feComposite4012-3" in2="SourceGraphic" operator="in" result="result4"/></filter><filter id="filter4004-44" width="1" height="1" x="0" y="0" color-interpolation-filters="sRGB"><feColorMatrix id="feColorMatrix4006-8" in="SourceGraphic" result="result2" type="saturate" values="1"/><feFlood id="feFlood4008-0" flood-color="#FAF7F7" flood-opacity="1" result="result1"/><feBlend id="feBlend4010-5" in="result1" in2="result2" mode="multiply" result="result3"/><feComposite id="feComposite4012-6" in2="SourceGraphic" operator="in" result="result4"/></filter><style id="current-color-scheme" type="text/css"/><linearGradient id="linearGradient4620" x1="439.571" x2="425.571" y1="542.798" y2="529.798" gradientUnits="userSpaceOnUse" xlink:href="#linearGradient4460"/><linearGradient id="linearGradient4612" x1="435.571" x2="427.571" y1="521.798" y2="528.798" gradientUnits="userSpaceOnUse" xlink:href="#linearGradient4460"/><linearGradient id="linearGradient4604" x1="436.571" x2="425.571" y1="529.798" y2="531.798" gradientUnits="userSpaceOnUse" xlink:href="#linearGradient4460"/><linearGradient id="linearGradient4594" x1="419.571" x2="425.571" y1="540.798" y2="530.798" gradientUnits="userSpaceOnUse" xlink:href="#linearGradient4460"/><linearGradient id="linearGradient4586" x1="425.571" x2="413.571" y1="541.798" y2="528.798" gradientUnits="userSpaceOnUse" xlink:href="#linearGradient4460"/><linearGradient id="linearGradient4578" x1="416.571" x2="406.571" y1="523.798" y2="531.798" gradientUnits="userSpaceOnUse" xlink:href="#linearGradient4460"/><linearGradient id="linearGradient4576" x1="420.571" x2="405.571" y1="544.798" y2="528.798" gradientUnits="userSpaceOnUse" xlink:href="#linearGradient4460"/><linearGradient id="linearGradient4568" x1="396.571" x2="401.571" y1="542.798" y2="530.798" gradientUnits="userSpaceOnUse" xlink:href="#linearGradient4460"/><linearGradient id="linearGradient4560" x1="380.571" x2="395.571" y1="531.798" y2="528.798" gradientUnits="userSpaceOnUse" xlink:href="#linearGradient4460"/><linearGradient id="linearGradient4552" x1="377.571" x2="391.571" y1="518.798" y2="520.798" gradientUnits="userSpaceOnUse" xlink:href="#linearGradient4460"/><linearGradient id="linearGradient4544" x1="389.571" x2="398.571" y1="528.798" y2="523.602" gradientUnits="userSpaceOnUse" xlink:href="#linearGradient4460"/><linearGradient id="linearGradient4536" x1="414.571" x2="402.571" y1="512.798" y2="523.798" gradientUnits="userSpaceOnUse" xlink:href="#linearGradient4460"/><linearGradient id="linearGradient4534" x1="437.571" x2="423.571" y1="518.798" y2="520.798" gradientUnits="userSpaceOnUse" xlink:href="#linearGradient4460"/><linearGradient id="linearGradient4526" x1="433.571" x2="420.571" y1="526.798" y2="519.798" gradientUnits="userSpaceOnUse" xlink:href="#linearGradient4460"/><linearGradient id="linearGradient4518" x1="436.571" x2="422.571" y1="521.798" y2="514.798" gradientUnits="userSpaceOnUse" xlink:href="#linearGradient4460"/><linearGradient id="linearGradient4510" x1="436.571" x2="427.571" y1="512.798" y2="516.798" gradientUnits="userSpaceOnUse" xlink:href="#linearGradient4460"/><linearGradient id="linearGradient4502" x1="426.571" x2="419.643" y1="524.798" y2="520.798" gradientUnits="userSpaceOnUse" xlink:href="#linearGradient4460"/><linearGradient id="linearGradient4494" x1="416.571" x2="409.571" y1="509.798" y2="514.798" gradientUnits="userSpaceOnUse" xlink:href="#linearGradient4460"/><linearGradient id="linearGradient4492" x1="396.571" x2="406.571" y1="522.798" y2="510.798" gradientUnits="userSpaceOnUse" xlink:href="#linearGradient4460"/><linearGradient id="linearGradient4484" x1="389.571" x2="402.571" y1="519.798" y2="511.798" gradientUnits="userSpaceOnUse" xlink:href="#linearGradient4460"/><linearGradient id="linearGradient4476" x1="431.571" x2="424.571" y1="500.798" y2="505.798" gradientUnits="userSpaceOnUse" xlink:href="#linearGradient4460"/><linearGradient id="linearGradient4466" x1="427.571" x2="420.571" y1="501.798" y2="510.798" gradientUnits="userSpaceOnUse" xlink:href="#linearGradient4460"/><linearGradient id="linearGradient4458" x1="414.571" x2="412.571" y1="513.798" y2="504.798" gradientUnits="userSpaceOnUse" xlink:href="#linearGradient4460"/><linearGradient id="linearGradient4450" x1="404.571" x2="405.571" y1="512.798" y2="502.798" gradientUnits="userSpaceOnUse" xlink:href="#linearGradient4460"/><linearGradient id="linearGradient4440" x1="404.571" x2="392.571" y1="506.798" y2="510.013" gradientUnits="userSpaceOnUse" xlink:href="#linearGradient4460"/><linearGradient id="linearGradient4432" x1="396.571" x2="391.953" y1="516.798" y2="508.798" gradientUnits="userSpaceOnUse" xlink:href="#linearGradient4460"/><linearGradient id="linearGradient4341" x1="409.571" x2="409.571" y1="535.798" y2="505.798" gradientUnits="userSpaceOnUse" xlink:href="#linearGradient4152"/><linearGradient id="linearGradient4152"><stop id="stop4154" offset="0" style="stop-color:#9526d0;stop-opacity:1"/><stop id="stop4156" offset="1" style="stop-color:#39a9f2;stop-opacity:1"/></linearGradient><linearGradient id="linearGradient4303"><stop style="stop-color:#c6cdd1;stop-opacity:1" id="stop4305" offset="0"/><stop style="stop-color:#e0e5e7;stop-opacity:1" id="stop4307" offset="1"/></linearGradient><linearGradient id="linearGradient4272" x1="408.571" x2="408.571" y1="547.798" y2="536.798" gradientTransform="matrix(3.181818,0,0,3.181818,-1223.6363,-1597.385)" gradientUnits="userSpaceOnUse" xlink:href="#linearGradient4303"/><linearGradient id="linearGradient4250" x1="409.571" x2="409.571" y1="536.798" y2="503.798" gradientTransform="matrix(3.181818,0,0,3.181818,-1223.6363,-1597.385)" gradientUnits="userSpaceOnUse" xlink:href="#linearGradient4159"/><linearGradient id="linearGradient4159"><stop id="stop4161" offset="0" style="stop-color:#2a2c2f;stop-opacity:1"/><stop id="stop4163" offset="1" style="stop-color:#424649;stop-opacity:1"/></linearGradient><linearGradient id="linearGradient4460"><stop style="stop-color:#fff;stop-opacity:1" id="stop4462" offset="0"/><stop style="stop-color:#fff;stop-opacity:0" id="stop4464" offset="1"/></linearGradient><linearGradient id="linearGradient1413" x1="3.05" x2="25.8" y1="16" y2="16" gradientTransform="matrix(1.4505503,0,0,1.4505503,383.74186,504.54364)" gradientUnits="userSpaceOnUse" xlink:href="#linearGradient1641"/><linearGradient id="linearGradient1641"><stop id="stop1637" offset="0" style="stop-color:#eff0f1;stop-opacity:1"/><stop id="stop1643" offset=".522" style="stop-color:#0cf;stop-opacity:1"/><stop id="stop1639" offset="1" style="stop-color:#008ade;stop-opacity:1"/></linearGradient></defs><metadata id="metadata5053"/><g id="layer1" transform="translate(-6.1297173,-913.75296)"><g id="layer1-5" transform="matrix(3.181818,0,0,3.181818,-1217.5066,-701.24058)"><path style="fill:url(#linearGradient1413);fill-opacity:1;stroke-width:.589288" id="LogIn" d="m 392.88037,518.3239 8.25,8.25 -8.25,8.25 v -4.71429 h -4.71429 v -7.07141 h 4.71429 z m 24.69112,22.74645 c 2.18033,-0.94286 3.59463,-3.06432 3.59463,-5.42144 v -26.75359 h -2.35717 v 3.53571 l -14.14287,6.48217 v 27.69641 z" class="st0"/><path style="clip-rule:evenodd;fill:#eff0f1;fill-opacity:1;fill-rule:evenodd;stroke-width:.589288" id="LogIn-s" d="m 395.23754,539.53819 v -7.07141 l 2.35712,-2.35717 v 9.42858 z m 25.92858,-28.28575 v 26.1643 c 0,2.8286 -1.70895,5.36251 -4.30178,6.48217 l -6.30539,2.7107 v -2.53391 l 5.42145,-2.29824 c 1.70895,-0.76604 2.82855,-2.47498 2.82855,-4.36072 v -24.98571 z m -25.92858,2.35717 c 0,-2.59289 2.12141,-4.71429 4.71429,-4.71429 h 9.42854 v 2.35712 h -9.42854 c -1.29644,0 -2.35717,1.06073 -2.35717,2.35717 v 6.48212 l -2.35712,-2.35712 z" class="st1"/></g></g></svg>