<svg xmlns="http://www.w3.org/2000/svg" xmlns:svg="http://www.w3.org/2000/svg" xmlns:xlink="http://www.w3.org/1999/xlink" id="svg5048" width="136.533" height="136.533" version="1.1" viewBox="0 0 128 128"><defs id="defs5050"><filter id="filter4004-4" width="1" height="1" x="0" y="0" color-interpolation-filters="sRGB"><feColorMatrix id="feColorMatrix4006-0" in="SourceGraphic" result="result2" type="saturate" values="1"/><feFlood id="feFlood4008-2" flood-color="#FAF7F7" flood-opacity="1" result="result1"/><feBlend id="feBlend4010-1" in="result1" in2="result2" mode="multiply" result="result3"/><feComposite id="feComposite4012-3" in2="SourceGraphic" operator="in" result="result4"/></filter><filter id="filter4004-44" width="1" height="1" x="0" y="0" color-interpolation-filters="sRGB"><feColorMatrix id="feColorMatrix4006-8" in="SourceGraphic" result="result2" type="saturate" values="1"/><feFlood id="feFlood4008-0" flood-color="#FAF7F7" flood-opacity="1" result="result1"/><feBlend id="feBlend4010-5" in="result1" in2="result2" mode="multiply" result="result3"/><feComposite id="feComposite4012-6" in2="SourceGraphic" operator="in" result="result4"/></filter><filter id="filter4004-4-4" width="1" height="1" x="0" y="0" color-interpolation-filters="sRGB"><feColorMatrix id="feColorMatrix4006-0-1" in="SourceGraphic" result="result2" type="saturate" values="1"/><feFlood id="feFlood4008-2-5" flood-color="#FAF7F7" flood-opacity="1" result="result1"/><feBlend id="feBlend4010-1-5" in="result1" in2="result2" mode="multiply" result="result3"/><feComposite id="feComposite4012-3-5" in2="SourceGraphic" operator="in" result="result4"/></filter><style id="current-color-scheme" type="text/css"/><linearGradient id="linearGradient2045" x1="4" x2="28.267" y1="15.135" y2="15.135" gradientTransform="matrix(4.6153842,0,0,4.6153842,-4.3630883,904.1256)" gradientUnits="userSpaceOnUse" xlink:href="#linearGradient3442"/><linearGradient id="linearGradient3442"><stop id="stop3438" offset="0" style="stop-color:#32b466;stop-opacity:1"/><stop id="stop3440" offset="1" style="stop-color:#008fb2;stop-opacity:1"/></linearGradient></defs><metadata id="metadata5053"/><g id="layer1" transform="translate(-6.1297004,-913.75296)"><path style="fill:url(#linearGradient2045);fill-opacity:1;stroke-width:2" id="Sync" d="m 48.69847,922.17169 c 10.19998,-4.19998 21.39998,-5.2 32.400001,-3.2 8.999975,1.80002 17.399975,5.80002 24.399999,11.59999 l 12.59998,-12.59997 v 40 h -40 l 10.200021,-10.19998 c -5.2,-3.60005 -11.400021,-5.80002 -18.200021,-5.80002 -17.6,0 -32,14.4 -32,32 h -24 c 0,-11.00003 3.2,-22 9.40002,-31.2 6.19998,-9.2 14.99998,-16.20003 25.2,-20.60002 z m 52.99998,57.00002 c -2.59998,15.2 -15.799979,26.79979 -31.6,26.79979 -6.8,0 -12.99998,-2.2001 -18.19998,-5.7999 l 10.19998,-10.19989 h -40 v 39.99979 l 12.60002,-12.6001 c 4.59998,3.8001 10,6.8 15.6,9.0001 10.4,4 21.6,4.5999 32.400001,2.2 10.799999,-2.4 20.599979,-8.2 28.199979,-16.2 7.6,-8 12.60002,-18.19982 14.39999,-29.19979 l 0.8,-1.2 v -8 h -7.99999 v 8 z" class="st0"/><path style="fill:#eff0f1;fill-opacity:1;stroke-width:2" id="Sync-s" d="m 80.09845,935.17171 c 5.000021,1.39997 9.800021,3.6 13.999996,6.8 l -5.799975,5.80002 c -3.2,-2.20002 -6.600025,-3.80002 -10.200021,-4.80005 -5.6,-1.39997 -11.39998,-1.39997 -16.8,0.19988 -5.39998,1.6 -10.4,4.60003 -14.4,8.8 -4,4.19998 -6.59998,9.39998 -8,14.8 l -7.79998,-1.80002 c 1.6,-6.99998 4.99998,-13.39998 10,-18.59998 4.99998,-5.2 11.2,-9.00002 18,-11.00002 6.8,-1.79998 14,-2 20.99998,-0.19988 z m 38,46.8 c 0,26.59969 -21.39998,47.99979 -48,47.99979 v 8 c 31.00002,0 55.99999,-25.0001 55.99999,-55.99979 z" class="st1"/></g></svg>