<svg xmlns="http://www.w3.org/2000/svg" xmlns:svg="http://www.w3.org/2000/svg" xmlns:xlink="http://www.w3.org/1999/xlink" id="svg5048" width="136.533" height="136.533" version="1.1" viewBox="0 0 128 128"><defs id="defs5050"><filter id="filter4004-4" width="1" height="1" x="0" y="0" color-interpolation-filters="sRGB"><feColorMatrix id="feColorMatrix4006-0" in="SourceGraphic" result="result2" type="saturate" values="1"/><feFlood id="feFlood4008-2" flood-color="#FAF7F7" flood-opacity="1" result="result1"/><feBlend id="feBlend4010-1" in="result1" in2="result2" mode="multiply" result="result3"/><feComposite id="feComposite4012-3" in2="SourceGraphic" operator="in" result="result4"/></filter><style id="current-color-scheme" type="text/css"/><linearGradient id="linearGradient2181" x1="4.6" x2="27.337" y1="15.594" y2="15.594" gradientTransform="matrix(4.6153842,0,0,4.6153827,-3.6166755,904.12559)" gradientUnits="userSpaceOnUse" xlink:href="#linearGradient2648"/><linearGradient id="linearGradient2648"><stop id="stop2644" offset="0" style="stop-color:#00a4cc;stop-opacity:1"/><stop id="stop2646" offset="1" style="stop-color:#005e97;stop-opacity:1"/></linearGradient></defs><metadata id="metadata5053"/><g id="layer1" transform="translate(-6.129729,-913.75296)"><path style="fill:url(#linearGradient2181);fill-opacity:1;stroke-width:1.875" id="Power" d="m 77.631675,959.22172 c 0,4.12498 -3.374966,7.49995 -7.499961,7.49995 h -7.50001 v -44.99995 h 14.999971 z m 13.500012,-7.68754 c 7.687531,6.18752 12.750033,15.75 12.750033,26.43751 0,18.5625 -15.187547,33.74971 -33.750006,33.74971 -18.56251,0 -33.75001,-15.18721 -33.75001,-33.74971 0,-10.68751 5.0625,-20.24999 12.74998,-26.43751 L 37.506734,936.9092 c -8.43752,6.74998 -14.81251,16.125 -17.81253,26.4375 -2.99998,10.49999 -2.81251,21.56249 0.9375,31.87499 3.56248,10.31221 10.31251,19.12471 19.12502,25.49971 8.81245,6.375 19.49996,9.75 30.37499,9.75 10.874976,0 21.562483,-3.375 30.374996,-9.75 8.8125,-6.375 15.56248,-15.1875 19.12497,-25.49971 3.56253,-10.3125 3.93752,-21.375 0.75003,-31.87499 -3.1875,-10.50002 -9.1875,-19.68752 -17.81253,-26.4375 z" class="st0"/><path style="fill:#eff0f1;fill-opacity:1;stroke-width:1.875" id="Power-s" d="m 66.381704,959.22172 c 0,2.06247 1.68749,3.74994 3.75001,3.74994 v 7.50001 c -6.18752,0 -11.25002,-5.06249 -11.25002,-11.24995 v -29.99999 c 0,-6.18752 5.0625,-11.25002 11.25002,-11.25002 6.187469,0 11.249967,5.0625 11.249967,11.25002 v 18.74997 h -7.499963 v -18.74997 c 0,-2.06253 -1.687532,-3.75001 -3.750004,-3.75001 -2.06252,0 -3.75001,1.68748 -3.75001,3.75001 z M 122.6317,985.4717 v -7.50001 h -7.50001 v 7.50001 c 0,24.9372 -20.062477,44.9997 -44.999976,44.9997 v 7.5 c 29.062495,0 52.499986,-23.4375 52.499986,-52.4997 z" class="st1"/></g></svg>