<svg xmlns="http://www.w3.org/2000/svg" xmlns:svg="http://www.w3.org/2000/svg" xmlns:xlink="http://www.w3.org/1999/xlink" id="svg5048" width="136.533" height="136.533" version="1.1" viewBox="0 0 128 128"><defs id="defs5050"><filter id="filter4004-4" width="1" height="1" x="0" y="0" color-interpolation-filters="sRGB"><feColorMatrix id="feColorMatrix4006-0" in="SourceGraphic" result="result2" type="saturate" values="1"/><feFlood id="feFlood4008-2" flood-color="#FAF7F7" flood-opacity="1" result="result1"/><feBlend id="feBlend4010-1" in="result1" in2="result2" mode="multiply" result="result3"/><feComposite id="feComposite4012-3" in2="SourceGraphic" operator="in" result="result4"/></filter><style id="current-color-scheme" type="text/css"/><linearGradient id="linearGradient2381" x1="3" x2="29.156" y1="15.006" y2="15.006" gradientTransform="matrix(4.3164637,0,0,4.424455,0.74653469,907.44688)" gradientUnits="userSpaceOnUse" xlink:href="#linearGradient1268"/><linearGradient id="linearGradient1268"><stop id="stop1264" offset="0" style="stop-color:#08ceff;stop-opacity:1"/><stop id="stop1266" offset="1" style="stop-color:#3083ff;stop-opacity:1"/></linearGradient><linearGradient id="linearGradient1980" x1="3" x2="29.156" y1="15.006" y2="15.006" gradientTransform="matrix(4.3164637,0,0,4.424455,0.74653469,907.44688)" gradientUnits="userSpaceOnUse" xlink:href="#linearGradient1978"/><linearGradient id="linearGradient1978"><stop id="stop1974" offset="0" style="stop-color:#08ceff;stop-opacity:1"/><stop id="stop1976" offset="1" style="stop-color:#08ceff;stop-opacity:0"/></linearGradient></defs><metadata id="metadata5053"/><g id="layer1" transform="translate(-6.129729,-913.75296)"><path style="fill:url(#linearGradient2381);fill-opacity:1;stroke:url(#linearGradient1980);stroke-width:2.00755" id="Cloud-Upload" d="m 115.30812,975.38799 c 0.18191,-1.9921 0.36468,-3.98418 0.36468,-5.97623 -3.1e-4,-21.91348 -14.7505,-39.84253 -32.77847,-39.84253 -12.200604,0 -22.762616,7.96847 -28.407674,19.92114 -2.367359,-1.54943 -5.098859,-2.21344 -8.012467,-2.21344 -10.015574,0 -18.210085,9.96061 -18.210085,22.13483 0,1.54932 0.182332,3.32006 0.364191,4.86963 -8.376649,1.77077 -14.932291,10.84596 -14.932291,21.69184 v 22.13297 h 94.692436 c 10.01554,0 18.21011,-9.9604 18.21011,-22.13297 0,-9.29651 -4.73466,-17.26499 -11.29033,-20.58524 z" class="st0"/><path style="fill:#eff0f1;fill-opacity:1;stroke-width:2.00755" id="CloudUpload-s" d="m 108.38833,1026.9605 -12.679601,-0.015 v -8.8661 l 12.679601,0.025 c 8.0125,0.015 14.56809,-7.9683 14.56809,-17.7072 0,-9.73779 -6.55559,-17.70636 -14.56809,-17.70636 v -8.85388 c 12.01864,0 21.85208,11.95276 21.85208,26.56014 0,14.6083 -9.83344,26.5617 -21.85208,26.5617 z m -16.988772,-8.8603 -70.419622,0.01 v 8.8544 c 24.302176,-6e-4 -37.85813,0.04 70.443823,0.04 z" class="st1"/><path style="fill:#1a1a1a;fill-opacity:1;stroke-width:.17807" id="path4-3-3" d="m 68.364355,977.13607 h -6.606059 l 9.061311,-13.38972 c 0.77517,-1.15828 0.936779,-2.74863 0.419907,-4.10329 -0.532896,-1.35467 -1.64754,-2.21848 -2.875069,-2.21848 H 55.039166 c -1.760613,0 -3.182032,1.7277 -3.182032,3.8677 0,2.14 1.421419,3.86778 3.182032,3.86778 h 6.606097 l -9.061348,13.38972 c -0.775261,1.15838 -0.936679,2.74859 -0.419906,4.10331 0.533028,1.35465 1.647485,2.21854 2.875206,2.21854 h 13.32523 c 1.760656,0 3.18203,-1.72774 3.18203,-3.86776 0,-2.13997 -1.437671,-3.8678 -3.18203,-3.8678 z"/><path style="fill:#1a1a1a;fill-opacity:1;stroke-width:.143578" id="path4-3-6-6" d="m 94.980318,1000.1793 h -5.326756 l 7.306459,-10.79489 c 0.625016,-0.93392 0.755272,-2.2164 0.338413,-3.30856 -0.430052,-1.09221 -1.328536,-1.78876 -2.318393,-1.78876 h -10.74445 c -1.419623,0 -2.565848,1.39304 -2.565848,3.1187 0,1.72542 1.146225,3.11853 2.565848,3.11853 h 5.326583 l -7.306398,10.79458 c -0.625071,0.9344 -0.755285,2.2167 -0.338418,3.3086 0.430041,1.0921 1.328372,1.7887 2.318374,1.7887 h 10.744444 c 1.419617,0 2.565792,-1.3926 2.565792,-3.1182 0,-1.726 -1.159182,-3.1187 -2.565792,-3.1187 z"/></g></svg>