<svg xmlns="http://www.w3.org/2000/svg" xmlns:svg="http://www.w3.org/2000/svg" xmlns:xlink="http://www.w3.org/1999/xlink" id="svg5048" width="136.533" height="136.533" version="1.1" viewBox="0 0 128 128"><defs id="defs5050"><filter id="filter4004-4" width="1" height="1" x="0" y="0" color-interpolation-filters="sRGB"><feColorMatrix id="feColorMatrix4006-0" in="SourceGraphic" result="result2" type="saturate" values="1"/><feFlood id="feFlood4008-2" flood-color="#FAF7F7" flood-opacity="1" result="result1"/><feBlend id="feBlend4010-1" in="result1" in2="result2" mode="multiply" result="result3"/><feComposite id="feComposite4012-3" in2="SourceGraphic" operator="in" result="result4"/></filter><style id="current-color-scheme" type="text/css"/><linearGradient id="linearGradient2653" x1="21.828" x2="-.06" y1="20.476" y2="20.347" gradientTransform="matrix(4.0038846,0,0,4.0038852,6.1297199,913.67483)" gradientUnits="userSpaceOnUse" xlink:href="#linearGradient1093"/><linearGradient id="linearGradient1093" x1="16" x2="16" y1="1" y2="31" gradientUnits="userSpaceOnUse"><stop style="stop-color:#a164ff;stop-opacity:1" id="stop1088" offset="0" stop-color="#f4282c"/><stop style="stop-color:#fde19f;stop-opacity:1" id="stop1091" offset="1" stop-color="#fac136"/></linearGradient></defs><metadata id="metadata5053"/><g id="layer1" transform="translate(-6.129729,-913.75296)"><path style="fill:url(#linearGradient2653);fill-opacity:1;stroke-width:2.00198" id="Exchange_2_" d="M 6.129729,993.75266 38.160807,961.7215 v 20.01945 h 48.046659 v -8.00773 h 8.007709 v 12.01171 c 0,11.01064 -9.008795,20.01997 -20.019361,20.01997 H 38.160807 v 20.0193 z" class="st0"/><path style="fill:#eff0f1;fill-opacity:1;stroke-width:2.00198" id="Exchange-s_1_" d="m 106.22682,929.69046 28.02723,28.02722 -28.02723,28.02725 -5.80565,-5.6055 18.41793,-18.41793 H 62.184165 c -4.404321,0 -8.007826,3.60349 -8.007826,8.00775 v 4.00397 h -8.007796 v -4.00397 c 0,-8.80846 7.206981,-16.01548 16.015622,-16.01548 H 118.8391 l -18.21762,-18.21775 z m -20.019354,52.05049 v 8.00777 c 0,8.80852 -7.206991,16.01618 -16.015624,16.01618 H 38.160807 v 8.0069 h 32.031035 c 13.212822,0 24.023333,-10.8102 24.023333,-24.02308 v -8.00777 z" class="st1"/></g></svg>